 <svg  version="1.0" xmlns="http://www.w3.org/2000/svg"  width="1350.000000pt" height="1509.000000pt" viewBox="0 0 1350.000000 1509.000000"  preserveAspectRatio="xMidYMid meet">  <g transform="translate(0.000000,1509.000000) scale(0.100000,-0.100000)" fill="#027941" stroke="none"> <path d="M0 7545 l0 -7545 6750 0 6750 0 0 7545 0 7545 -6750 0 -6750 0 0 -7545z m6460 7135 c19 -6 75 -15 124 -21 55 -5 96 -15 107 -25 9 -8 40 -21 69 -29 29 -8 62 -23 74 -33 11 -11 47 -34 79 -52 31 -17 57 -36 57 -41 0 -5 12 -15 27 -22 69 -30 326 -325 348 -398 4 -13 16 -34 27 -46 11 -11 24 -40 29 -63 5 -23 18 -53 28 -68 11 -15 22 -45 26 -66 3 -21 13 -49 21 -61 8 -12 19 -64 24 -116 5 -52 17 -119 25 -149 22 -79 20 -252 -4 -348 -10 -43 -22 -118 -25 -169 -4 -51 -13 -107 -21 -126 -8 -19 -17 -65 -21 -103 -3 -38 -15 -86 -25 -108 -12 -23 -23 -74 -28 -125 -6 -63 -14 -96 -29 -117 -13 -19 -23 -53 -27 -96 -6 -61 -5 -68 11 -68 10 0 30 12 44 26 14 14 63 57 110 95 47 38 104 85 126 104 78 64 131 103 153 110 11 3 26 15 31 26 6 10 25 26 43 35 64 31 101 54 109 68 4 8 21 17 37 21 16 3 32 13 35 21 3 8 20 22 38 30 48 23 89 46 123 70 17 12 41 25 55 29 14 4 34 15 45 25 11 10 31 21 45 25 14 4 32 13 40 19 26 21 141 76 159 76 9 0 26 6 37 14 11 8 40 19 64 25 25 6 63 20 85 31 52 24 197 67 258 75 27 4 67 13 90 21 101 36 714 38 802 3 17 -6 59 -19 95 -29 92 -26 182 -59 200 -75 8 -7 26 -16 39 -20 61 -19 218 -120 276 -177 13 -13 29 -28 37 -35 70 -62 184 -226 232 -334 16 -35 37 -82 47 -105 11 -23 19 -51 19 -62 0 -12 9 -45 21 -74 11 -29 27 -100 36 -158 8 -58 18 -130 23 -160 11 -74 11 -323 0 -385 -5 -27 -14 -103 -20 -168 -6 -74 -19 -149 -35 -198 -14 -44 -25 -99 -25 -122 0 -23 -9 -62 -20 -86 -11 -24 -20 -54 -20 -67 0 -21 -6 -42 -31 -99 -5 -11 -13 -42 -19 -70 -6 -27 -17 -59 -24 -70 -7 -11 -17 -36 -21 -55 -4 -19 -18 -54 -31 -77 -13 -23 -24 -46 -24 -51 0 -5 -20 -46 -45 -91 -25 -45 -45 -87 -45 -95 0 -7 -13 -30 -30 -51 -16 -21 -30 -44 -30 -51 0 -8 -9 -19 -20 -26 -11 -7 -20 -20 -20 -30 0 -9 -11 -30 -25 -46 -14 -17 -25 -37 -25 -46 0 -8 -11 -23 -25 -32 -14 -9 -25 -24 -25 -34 0 -9 -50 -84 -111 -166 -61 -82 -117 -160 -125 -174 -20 -35 -55 -80 -84 -112 -14 -14 -31 -33 -37 -42 -99 -122 -206 -248 -243 -286 -14 -14 -33 -37 -42 -51 -37 -58 -642 -669 -662 -669 -8 0 -17 -9 -21 -19 -3 -11 -14 -22 -23 -25 -9 -3 -53 -39 -97 -80 -44 -41 -89 -83 -100 -93 -69 -64 -271 -240 -345 -300 -8 -6 -35 -29 -60 -51 -25 -22 -59 -47 -76 -55 -17 -9 -34 -23 -38 -32 -3 -8 -14 -19 -24 -23 -11 -4 -40 -25 -66 -47 -26 -22 -64 -55 -85 -72 -21 -18 -45 -33 -54 -33 -8 0 -22 -11 -31 -25 -9 -14 -21 -25 -26 -25 -5 0 -20 -9 -32 -21 -13 -12 -48 -38 -80 -58 -48 -31 -127 -83 -252 -167 -29 -19 -71 -45 -136 -83 -19 -12 -44 -27 -55 -33 -11 -7 -42 -26 -70 -42 -61 -36 -107 -64 -161 -99 -22 -15 -46 -27 -53 -27 -7 0 -26 -11 -43 -25 -16 -14 -37 -25 -45 -25 -9 0 -24 -6 -32 -14 -9 -7 -50 -31 -91 -52 -41 -21 -86 -46 -99 -56 -13 -10 -32 -18 -42 -18 -11 0 -27 -9 -36 -20 -10 -11 -22 -20 -28 -20 -5 0 -21 -6 -35 -13 -14 -8 -56 -30 -93 -50 -38 -21 -75 -37 -83 -37 -8 0 -22 -9 -31 -20 -10 -11 -33 -25 -53 -31 -19 -7 -46 -20 -60 -29 -14 -10 -36 -21 -50 -25 -14 -4 -36 -16 -49 -26 -13 -11 -34 -19 -47 -19 -13 0 -28 -9 -33 -19 -6 -11 -31 -24 -60 -31 -27 -6 -57 -20 -67 -31 -9 -10 -25 -19 -34 -19 -10 0 -28 -8 -41 -19 -44 -34 -133 -43 -170 -17 -29 20 -156 136 -198 180 -45 48 -206 213 -549 565 -147 150 -289 296 -317 325 -75 78 -198 216 -216 243 -8 13 -23 29 -31 36 -18 14 -254 289 -281 327 -42 59 -74 101 -104 137 -72 84 -91 109 -97 131 -4 12 -16 27 -27 32 -10 6 -19 17 -19 24 0 7 -9 21 -20 31 -11 10 -22 27 -26 37 -6 19 -33 64 -70 117 -10 13 -27 43 -38 65 -28 54 -47 86 -68 115 -10 13 -18 32 -18 42 0 11 -11 29 -25 41 -14 12 -25 27 -25 34 0 6 -22 55 -50 108 -27 53 -50 103 -50 112 0 9 -11 29 -25 46 -14 16 -25 37 -25 46 0 10 -8 33 -19 52 -10 19 -24 53 -31 75 -7 22 -19 49 -25 60 -7 11 -16 37 -19 58 -4 21 -15 52 -26 70 -10 18 -22 50 -25 72 -4 22 -14 50 -22 63 -7 12 -18 47 -24 77 -5 30 -19 74 -29 98 -11 23 -20 57 -20 75 0 18 -7 49 -15 70 -9 20 -20 70 -26 112 -6 41 -19 95 -30 118 -10 24 -21 74 -25 110 -3 37 -13 91 -21 120 -8 29 -21 96 -29 150 -8 53 -20 131 -29 172 -8 41 -14 119 -15 172 0 60 -9 138 -22 205 -21 99 -22 134 -22 443 1 293 3 341 18 380 12 31 20 93 25 200 5 98 14 168 23 190 8 20 18 62 22 95 4 33 13 83 21 110 8 28 21 82 29 122 8 39 21 82 29 95 8 13 18 43 22 68 4 25 15 63 25 85 9 22 20 53 24 69 9 35 56 105 72 106 23 0 33 -44 17 -80 -7 -19 -20 -77 -28 -130 -7 -52 -18 -114 -24 -137 -13 -50 -41 -612 -35 -693 2 -30 8 -158 13 -285 6 -139 15 -252 24 -285 8 -30 18 -95 22 -145 3 -49 15 -121 25 -160 10 -38 21 -97 25 -130 4 -33 15 -87 26 -119 10 -33 19 -76 19 -96 0 -21 11 -68 25 -104 14 -37 25 -78 25 -91 0 -14 9 -51 19 -82 11 -32 22 -76 26 -98 4 -22 13 -50 21 -63 9 -13 20 -50 25 -82 5 -33 21 -81 34 -106 14 -26 25 -59 25 -73 1 -14 9 -44 20 -66 11 -22 19 -50 20 -61 0 -12 9 -33 21 -47 11 -15 24 -49 28 -76 4 -27 17 -60 28 -75 11 -14 24 -41 27 -60 4 -19 13 -40 21 -46 20 -17 82 -6 109 19 12 10 37 26 56 35 19 9 42 20 50 25 8 6 27 16 42 23 15 7 78 38 140 69 157 79 218 105 260 113 20 3 47 15 59 25 13 10 48 23 77 30 29 6 65 17 80 25 15 7 47 17 72 21 25 4 60 14 79 21 19 8 78 18 131 23 77 6 105 13 142 35 l47 27 -15 34 c-8 19 -14 42 -14 52 0 10 -12 41 -25 68 -14 28 -25 58 -25 68 0 10 -8 34 -19 55 -10 20 -22 53 -26 72 -4 19 -13 45 -21 57 -7 12 -18 51 -24 87 -6 36 -19 80 -29 98 -10 18 -22 62 -26 98 -3 36 -12 74 -20 86 -7 12 -19 50 -25 85 -6 35 -17 83 -26 105 -8 23 -18 84 -23 136 -4 56 -15 108 -25 129 -11 21 -21 73 -26 139 -5 58 -16 122 -24 142 -10 23 -20 93 -26 182 -5 79 -16 189 -25 245 -21 143 -21 667 1 806 8 55 19 141 24 192 4 51 15 107 25 125 9 18 20 63 25 100 5 41 16 77 28 93 11 13 23 44 26 69 4 24 13 52 21 62 8 11 15 26 15 34 0 8 6 26 13 40 8 14 35 66 61 115 59 111 81 144 178 270 96 125 161 189 283 280 15 11 37 30 49 42 12 12 34 25 48 28 14 4 35 18 47 31 11 13 29 24 40 24 10 0 24 7 31 14 6 8 28 20 48 27 20 6 51 19 67 29 17 10 50 20 75 24 24 4 58 15 75 26 20 12 65 23 130 30 55 6 116 14 135 19 50 13 229 13 270 1z m1868 -9459 c30 -4 58 -14 63 -22 13 -21 11 -194 -3 -224 -14 -32 -43 -40 -144 -40 -121 0 -125 6 -122 154 l3 116 35 12 c40 14 92 15 168 4z m2875 -10 c16 -12 17 -75 17 -716 l0 -702 23 -34 c29 -43 82 -71 122 -63 107 20 136 -3 143 -110 l4 -63 -48 -28 c-47 -27 -53 -28 -194 -29 -165 -1 -177 3 -258 80 l-47 45 -3 792 c-2 436 0 802 3 814 7 28 22 32 131 30 60 -1 97 -7 107 -16z m-8705 -43 c9 -9 12 -96 12 -329 0 -182 4 -329 10 -343 l10 -26 409 0 c395 0 411 1 421 19 6 13 10 137 10 337 0 281 2 320 17 336 14 15 32 18 118 18 93 0 103 -2 123 -23 l22 -24 -2 -815 c-3 -673 -5 -818 -17 -831 -11 -14 -34 -17 -127 -17 -102 0 -114 2 -124 19 -6 13 -10 146 -10 364 0 313 -2 347 -17 366 -18 22 -19 22 -420 19 -221 -2 -405 -7 -410 -11 -4 -5 -10 -176 -13 -380 l-5 -372 -118 -3 -117 -3 -10 26 c-6 17 -10 327 -10 836 0 951 -17 849 138 849 63 0 102 -4 110 -12z m6528 -39 c17 -19 19 -40 21 -201 1 -99 4 -182 7 -185 2 -2 57 -7 123 -9 143 -5 146 -8 141 -108 -5 -91 -13 -96 -143 -96 -65 0 -105 -4 -113 -12 -9 -9 -12 -105 -12 -369 0 -354 0 -358 23 -393 27 -43 78 -54 178 -39 122 19 130 11 133 -120 l1 -72 -40 -13 c-22 -7 -56 -20 -75 -30 -28 -13 -64 -17 -180 -17 -142 0 -146 1 -185 28 -68 47 -102 92 -114 147 -7 32 -11 199 -11 449 0 322 -3 401 -14 416 -10 14 -30 20 -80 23 -36 2 -70 10 -76 17 -6 8 -10 48 -8 97 l3 83 75 10 c41 6 81 14 88 18 9 6 12 53 12 179 0 163 1 173 22 195 19 21 30 23 113 23 81 0 94 -3 111 -21z m-4288 -400 c29 -5 65 -18 79 -29 14 -11 34 -20 44 -20 11 0 19 -4 19 -10 0 -5 17 -18 38 -29 43 -22 144 -119 167 -160 81 -148 93 -183 100 -296 9 -145 -7 -295 -34 -334 -12 -16 -21 -36 -21 -45 0 -9 -9 -25 -20 -36 -11 -11 -20 -24 -20 -29 0 -5 -16 -28 -35 -51 -19 -23 -35 -46 -35 -51 0 -6 -13 -15 -30 -20 -16 -6 -32 -19 -35 -30 -4 -12 -19 -22 -36 -26 -16 -3 -34 -14 -40 -24 -5 -11 -15 -19 -21 -19 -6 0 -36 -12 -67 -27 -55 -28 -59 -28 -246 -28 -178 0 -192 1 -230 23 -22 12 -43 22 -46 22 -4 0 -32 16 -64 35 -62 37 -183 155 -207 201 -8 16 -22 43 -30 59 -47 92 -63 167 -62 300 1 107 4 140 22 190 12 32 22 65 22 73 0 7 8 25 18 40 10 15 33 50 52 77 57 87 151 165 254 214 58 28 85 34 175 40 113 8 203 5 289 -10z m1248 12 c88 -8 120 -15 159 -35 26 -14 54 -26 62 -26 14 0 60 -29 101 -64 26 -23 30 -71 7 -80 -9 -3 -21 -19 -27 -36 -5 -17 -23 -37 -39 -46 -28 -14 -32 -13 -98 25 -37 22 -86 45 -107 50 -22 5 -57 16 -79 25 -62 24 -131 20 -215 -13 -41 -15 -77 -34 -81 -42 -4 -8 -16 -35 -28 -61 l-22 -47 20 -39 c30 -59 84 -102 129 -102 20 0 60 -12 87 -25 28 -14 68 -25 90 -25 22 0 60 -9 84 -20 24 -11 55 -20 70 -20 14 0 42 -11 61 -23 19 -13 50 -29 68 -35 44 -15 101 -65 132 -116 23 -37 25 -51 25 -151 -1 -98 -3 -115 -26 -155 -21 -38 -65 -88 -129 -145 -20 -18 -123 -54 -190 -67 -31 -6 -123 -8 -215 -5 -133 4 -167 9 -205 26 -25 11 -57 21 -71 21 -14 0 -33 8 -43 18 -9 11 -34 24 -56 31 -22 6 -45 19 -52 29 -7 9 -22 22 -33 28 -34 20 -16 85 40 152 25 29 26 30 58 16 17 -9 39 -20 47 -25 52 -33 166 -78 211 -84 30 -4 67 -13 83 -21 38 -18 106 -18 142 1 16 8 50 18 77 21 26 4 47 9 47 13 0 3 14 22 30 41 25 29 30 44 30 88 0 48 -3 57 -36 87 -19 19 -50 37 -67 41 -18 3 -44 13 -60 21 -15 7 -53 18 -84 24 -31 6 -72 19 -92 30 -20 10 -52 19 -71 19 -19 0 -62 14 -95 30 -33 16 -70 30 -82 30 -12 0 -27 9 -33 20 -6 11 -20 20 -30 20 -11 0 -20 5 -20 10 0 6 -12 23 -27 38 -50 50 -65 149 -39 267 21 100 87 179 202 241 66 37 86 41 259 52 11 1 70 -2 131 -7z m1411 -1 c105 -11 177 -44 273 -126 63 -53 142 -162 164 -226 8 -24 23 -59 32 -78 16 -30 18 -61 18 -215 -1 -175 -1 -181 -27 -232 -15 -29 -27 -61 -27 -72 0 -11 -4 -22 -8 -25 -5 -3 -26 -35 -48 -72 -22 -37 -50 -72 -66 -80 -15 -8 -28 -21 -28 -29 0 -7 -9 -16 -19 -20 -11 -3 -31 -15 -45 -26 -70 -55 -115 -70 -230 -76 -61 -3 -140 -1 -176 5 -61 9 -78 17 -193 90 -15 9 -29 24 -32 32 -7 21 -74 62 -91 56 -12 -4 -14 -60 -14 -324 0 -274 -2 -321 -15 -332 -10 -8 -52 -13 -121 -13 -93 -1 -108 1 -120 18 -12 16 -14 158 -14 854 1 460 3 845 6 857 7 28 27 31 144 24 l95 -5 3 -60 c3 -74 9 -105 22 -105 5 0 37 27 72 60 34 33 66 60 72 60 5 0 26 11 45 25 29 19 56 26 131 33 52 5 97 10 100 10 3 1 46 -3 97 -8z m2808 0 c85 -8 111 -15 174 -47 40 -21 93 -57 118 -81 44 -44 103 -141 103 -171 0 -9 8 -36 17 -61 14 -37 18 -98 22 -346 l6 -302 25 -20 c23 -19 25 -28 28 -114 5 -127 1 -132 -112 -131 -82 0 -89 2 -117 29 -17 16 -42 53 -56 82 -29 62 -47 66 -94 17 -19 -19 -39 -35 -45 -35 -6 0 -17 -7 -25 -16 -7 -8 -42 -29 -78 -46 -65 -31 -68 -31 -231 -32 l-165 -1 -55 32 c-66 38 -148 113 -172 157 -39 72 -42 83 -42 192 0 109 0 112 34 168 53 88 159 170 243 188 29 6 63 18 76 27 38 24 313 23 358 -2 18 -9 53 -20 78 -23 42 -6 45 -5 55 20 7 19 6 52 -4 116 -14 82 -18 92 -55 130 -28 29 -63 50 -116 71 -90 34 -147 36 -225 9 -30 -11 -64 -20 -75 -20 -22 0 -130 -53 -157 -77 -18 -16 -70 -10 -86 10 -5 7 -17 34 -27 60 -26 69 -14 89 82 133 43 19 96 44 118 54 24 11 81 23 135 28 131 13 151 13 265 2z m-1817 -23 c10 -8 12 -134 10 -614 -3 -585 -4 -605 -22 -619 -29 -21 -219 -20 -240 2 -14 14 -16 84 -16 618 0 645 -2 620 50 628 46 6 205 -4 218 -15z m-4283 -1841 c12 -8 40 -19 62 -25 50 -14 155 -112 183 -173 12 -24 27 -54 35 -68 11 -18 15 -60 15 -155 0 -95 -4 -137 -15 -155 -8 -14 -24 -45 -35 -68 -11 -24 -49 -73 -85 -109 -36 -36 -65 -69 -65 -73 0 -5 10 -12 21 -15 30 -10 108 -64 144 -101 44 -46 84 -116 94 -165 5 -24 14 -68 20 -97 9 -46 8 -67 -11 -144 -13 -56 -30 -101 -44 -118 -13 -15 -24 -32 -24 -37 0 -6 -24 -31 -52 -58 -54 -48 -102 -75 -136 -75 -11 0 -26 -10 -34 -23 l-15 -22 -504 -3 c-468 -3 -505 -1 -516 15 -10 13 -13 187 -12 817 1 441 4 815 8 831 5 25 12 31 41 35 19 3 230 4 469 3 360 -2 437 -5 456 -17z m2163 -435 c31 -10 74 -22 94 -25 21 -4 43 -15 50 -25 7 -10 23 -21 35 -25 34 -11 99 -83 138 -153 45 -79 55 -164 55 -489 l0 -242 40 -53 c39 -52 40 -56 40 -132 0 -104 -6 -114 -77 -121 -61 -7 -165 14 -171 34 -2 6 -15 23 -28 37 -13 14 -24 34 -24 44 0 24 -10 49 -21 49 -13 0 -109 -70 -109 -80 0 -4 -12 -11 -27 -15 -15 -3 -40 -17 -56 -31 -16 -14 -42 -24 -60 -24 -18 -1 -50 -8 -72 -16 -66 -24 -173 -29 -225 -9 -25 9 -63 20 -85 25 -22 5 -46 17 -54 29 -7 12 -19 21 -26 21 -22 0 -64 39 -99 93 -73 110 -92 214 -57 307 12 30 21 63 21 72 0 9 8 19 18 22 10 4 22 17 28 30 13 34 113 111 154 119 19 4 45 17 58 30 23 21 30 22 246 22 194 0 225 -2 249 -17 40 -27 55 -23 63 17 13 69 0 150 -32 202 -36 58 -111 110 -172 119 -77 12 -236 -2 -284 -24 -73 -33 -112 -52 -138 -67 -41 -24 -79 -19 -90 11 -6 15 -19 38 -30 52 -11 13 -20 35 -20 47 0 28 64 79 110 88 19 4 44 16 55 27 13 12 46 24 79 30 31 5 61 12 68 16 25 15 78 22 186 23 86 1 126 -4 170 -18z m1362 -8 c49 -15 94 -36 107 -50 12 -13 28 -23 35 -23 7 0 38 -27 70 -60 31 -33 59 -56 62 -51 3 5 9 42 12 82 8 99 18 109 106 109 82 0 135 -19 143 -52 3 -13 5 -297 3 -633 -3 -543 -5 -614 -20 -650 -9 -22 -19 -58 -23 -80 -7 -43 -44 -112 -75 -140 -11 -10 -20 -24 -20 -31 0 -7 -10 -19 -22 -25 -13 -7 -31 -23 -41 -36 -10 -12 -25 -23 -32 -23 -7 0 -26 -11 -42 -23 -15 -13 -48 -31 -73 -40 -25 -9 -63 -22 -85 -30 -103 -38 -447 -29 -528 13 -21 11 -46 20 -57 20 -10 0 -22 5 -25 10 -4 6 -25 22 -47 36 -22 14 -64 49 -94 78 -68 66 -70 87 -9 146 36 36 52 44 81 44 24 0 42 -7 53 -20 85 -104 269 -161 456 -141 90 9 136 26 200 74 42 32 42 33 74 83 32 50 56 177 49 265 -4 68 -26 71 -87 12 -25 -25 -59 -49 -76 -53 -16 -4 -40 -18 -52 -31 -15 -15 -33 -23 -57 -23 -19 0 -59 -5 -87 -11 -75 -16 -252 6 -288 37 -14 11 -41 26 -60 32 -64 22 -206 187 -237 276 -8 22 -18 44 -24 51 -5 6 -14 62 -21 124 -16 142 -1 294 38 385 51 124 163 259 231 280 12 4 26 16 32 26 5 10 30 23 58 30 27 6 66 17 88 25 66 24 187 19 284 -12z m1470 17 c122 -32 169 -49 188 -68 12 -12 27 -22 34 -22 15 0 108 -90 108 -104 0 -5 11 -26 24 -45 46 -68 59 -169 61 -466 2 -288 -1 -267 52 -359 13 -22 17 -134 7 -174 -7 -26 -39 -37 -109 -36 -70 0 -129 19 -143 46 -7 13 -16 30 -21 38 -5 8 -15 30 -21 48 -7 17 -17 32 -22 32 -5 0 -36 -22 -69 -50 -33 -27 -67 -50 -76 -50 -9 0 -25 -11 -37 -23 -16 -17 -38 -26 -77 -30 -29 -4 -72 -14 -94 -22 -56 -20 -132 -18 -205 5 -34 11 -70 20 -80 20 -9 0 -27 11 -40 25 -13 14 -29 25 -37 25 -18 0 -90 76 -99 103 -3 12 -14 31 -24 42 -25 28 -41 148 -29 229 11 78 18 97 41 114 10 7 18 18 18 25 0 22 114 117 155 129 22 7 53 21 68 33 27 19 43 20 251 20 198 0 225 -2 250 -18 54 -36 69 -2 56 128 -8 74 -11 83 -47 121 -21 22 -56 51 -78 65 -37 22 -49 24 -180 24 -125 0 -144 -2 -175 -21 -19 -12 -47 -24 -62 -28 -15 -3 -44 -18 -65 -32 -24 -16 -48 -24 -68 -22 -26 3 -34 11 -64 72 -25 50 -31 71 -22 74 7 2 28 17 46 33 18 16 41 29 51 29 11 0 39 14 63 30 24 17 56 30 70 30 14 0 53 9 86 20 66 21 251 27 315 10z m-3680 -19 c15 -29 13 -196 -3 -209 -7 -6 -33 -14 -57 -18 -25 -4 -62 -15 -82 -25 -21 -11 -45 -19 -54 -19 -23 0 -111 -56 -150 -94 -17 -17 -45 -57 -63 -88 l-32 -57 1 -357 c1 -235 -2 -360 -9 -367 -14 -14 -221 -11 -234 2 -7 7 -11 210 -10 612 0 581 0 602 19 616 15 12 40 14 113 10 51 -3 99 -11 105 -17 6 -6 13 -53 14 -105 4 -106 13 -116 55 -62 45 59 92 104 115 111 12 4 27 16 32 26 6 11 26 22 48 26 20 4 48 13 62 20 14 7 46 13 72 14 37 0 50 -4 58 -19z m-3490 -420 c6 -13 10 -138 10 -338 0 -261 3 -322 14 -339 8 -11 16 -34 18 -50 3 -26 0 -29 -32 -35 -43 -6 -70 5 -70 32 0 38 -48 30 -97 -18 -34 -32 -219 -27 -253 7 -10 10 -27 23 -38 29 -11 6 -37 37 -56 70 -35 57 -36 62 -36 157 0 68 5 107 15 124 8 14 18 34 24 45 5 11 21 30 35 42 14 13 26 27 26 32 0 9 116 51 143 51 39 0 150 -44 155 -62 5 -20 42 -25 43 -5 0 6 3 64 5 127 4 86 9 119 21 132 21 24 60 23 73 -1z m8608 7 c20 -20 14 -65 -10 -82 -18 -13 -56 -16 -210 -16 -220 0 -208 7 -208 -123 0 -129 -4 -126 205 -129 l170 -3 3 -42 3 -43 -173 0 c-95 0 -180 -5 -188 -10 -20 -12 -28 -223 -10 -245 10 -12 47 -15 206 -15 181 0 195 -1 214 -20 21 -21 20 -62 -2 -85 -10 -11 -515 -11 -526 0 -12 12 -14 783 -2 805 10 19 20 20 263 20 184 0 256 -3 265 -12z m758 -43 c112 -98 141 -206 89 -324 -54 -119 -137 -161 -318 -161 -75 0 -117 -4 -125 -12 -8 -8 -12 -49 -12 -120 0 -133 -9 -158 -61 -158 -24 0 -39 5 -43 16 -3 9 -6 193 -6 409 0 305 3 395 13 399 6 3 100 4 208 3 l197 -2 58 -50z m882 43 c17 -17 15 -58 -5 -80 -14 -16 -35 -18 -209 -18 -138 0 -195 -3 -200 -12 -14 -22 -7 -220 8 -229 7 -5 88 -9 179 -9 182 0 193 -3 187 -57 l-3 -28 -185 -6 c-102 -3 -185 -6 -186 -7 -8 -13 -12 -121 -7 -183 l6 -79 198 0 c192 0 199 -1 225 -23 26 -22 26 -24 11 -54 -9 -17 -24 -34 -33 -37 -10 -4 -123 -6 -251 -5 -192 1 -236 3 -248 16 -13 12 -15 74 -15 412 0 219 3 401 7 404 12 13 508 8 521 -5z m-9693 -224 c52 -20 112 -71 133 -114 7 -14 19 -36 27 -50 17 -28 20 -107 5 -130 -8 -12 -46 -16 -225 -18 -168 -2 -217 -6 -221 -16 -10 -27 35 -100 80 -128 50 -33 144 -40 166 -13 7 8 18 15 25 15 8 0 22 11 32 24 16 22 42 31 81 27 6 -1 12 -12 12 -25 0 -17 -17 -39 -57 -73 l-56 -48 -112 0 c-107 0 -113 1 -154 29 -118 82 -147 170 -115 358 4 26 22 53 60 93 87 90 198 114 319 69z"/> <path d="M6076 14138 c-10 -6 -44 -17 -74 -25 -31 -8 -67 -23 -80 -34 -14 -10 -28 -19 -33 -19 -12 0 -110 -61 -154 -96 -59 -47 -175 -161 -175 -172 0 -5 -11 -17 -25 -26 -14 -9 -25 -23 -25 -31 0 -9 -9 -23 -21 -33 -11 -9 -27 -30 -35 -47 -8 -16 -26 -48 -39 -70 -31 -50 -71 -140 -105 -235 -7 -19 -18 -51 -26 -70 -7 -19 -13 -51 -14 -70 0 -19 -9 -62 -19 -95 -10 -33 -22 -96 -26 -140 -3 -44 -14 -120 -23 -170 -24 -126 -23 -775 1 -940 9 -60 19 -157 22 -215 3 -58 15 -159 25 -225 10 -66 22 -149 25 -185 4 -36 15 -101 26 -145 10 -44 19 -103 19 -130 0 -28 7 -75 15 -105 9 -30 21 -89 27 -130 6 -41 19 -98 30 -126 10 -28 23 -78 28 -110 5 -32 16 -77 24 -99 8 -22 15 -53 16 -70 1 -68 24 -75 233 -75 143 0 177 -3 187 -15 23 -28 -5 -42 -93 -49 -91 -7 -267 -55 -267 -72 0 -6 7 -17 15 -24 8 -7 20 -31 26 -54 6 -22 20 -62 30 -88 11 -26 19 -58 19 -71 0 -13 9 -36 20 -49 10 -14 22 -45 26 -69 4 -24 20 -67 36 -97 15 -30 28 -62 28 -72 0 -10 7 -23 15 -30 8 -7 15 -20 15 -29 0 -9 14 -45 31 -81 17 -36 39 -83 49 -105 25 -59 61 -137 119 -255 28 -58 51 -110 51 -116 0 -6 9 -23 21 -38 27 -34 23 -90 -6 -94 -13 -2 -26 7 -35 22 -8 14 -49 71 -90 127 -41 57 -84 117 -95 135 -11 18 -38 59 -59 91 -78 116 -86 129 -86 140 0 6 -10 23 -22 38 -24 30 -47 70 -72 121 -8 17 -22 36 -30 43 -8 7 -17 25 -21 40 -3 16 -17 38 -30 50 -14 11 -25 29 -25 38 0 10 -9 32 -20 48 -11 17 -34 59 -50 95 -17 36 -35 72 -41 80 -18 29 -39 80 -39 97 0 10 -16 31 -37 47 -36 29 -36 29 -67 12 -17 -10 -57 -22 -90 -26 -32 -5 -65 -15 -75 -23 -9 -9 -35 -20 -59 -27 -24 -6 -86 -31 -138 -56 -52 -24 -96 -44 -99 -44 -5 0 -62 -33 -153 -87 -20 -13 -55 -31 -78 -42 -23 -10 -44 -26 -47 -35 -4 -9 -15 -16 -25 -16 -10 0 -28 -10 -39 -22 -11 -13 -46 -38 -77 -57 -31 -19 -61 -42 -67 -53 -5 -10 -18 -18 -29 -18 -11 0 -27 -11 -36 -25 -9 -14 -21 -25 -28 -25 -11 0 -78 -58 -109 -96 -16 -20 -16 -23 4 -68 11 -26 29 -56 40 -67 10 -10 19 -25 19 -31 0 -7 20 -42 45 -78 25 -36 45 -70 45 -76 0 -6 11 -21 25 -34 14 -13 25 -32 25 -42 0 -9 11 -25 25 -34 14 -9 25 -20 25 -25 0 -13 65 -113 84 -128 9 -7 16 -17 16 -22 0 -9 53 -78 118 -156 15 -17 38 -48 52 -68 14 -20 37 -52 53 -70 15 -18 27 -38 27 -44 0 -6 4 -11 8 -11 5 0 48 -50 97 -111 49 -61 97 -115 107 -120 10 -5 18 -15 18 -21 0 -6 15 -26 33 -43 17 -17 79 -82 137 -145 58 -62 179 -187 270 -277 91 -89 170 -168 175 -174 9 -9 51 -50 180 -174 94 -91 156 -145 165 -145 5 0 15 -9 23 -20 20 -29 85 -70 110 -70 12 0 36 9 52 20 17 11 38 20 47 20 9 0 29 11 45 24 15 13 42 27 60 30 17 4 37 14 43 21 7 8 42 28 78 45 37 17 78 37 92 45 14 8 41 22 60 31 19 9 42 22 50 29 8 7 48 29 87 50 40 20 75 40 78 45 3 5 22 14 43 21 20 6 46 19 57 28 11 9 36 25 55 34 66 33 161 85 188 103 15 10 43 27 62 37 53 28 92 50 120 70 13 9 31 17 39 17 7 0 24 11 37 25 13 14 32 25 43 25 11 0 25 8 30 18 5 10 38 33 73 51 35 18 72 41 83 51 11 10 30 21 42 25 13 3 29 12 37 20 7 7 78 57 157 110 187 125 230 156 257 183 12 12 26 22 31 22 9 0 118 82 164 125 15 14 33 25 39 25 6 0 35 21 64 48 66 59 120 102 128 102 11 0 286 226 471 387 28 24 63 54 78 66 73 58 521 496 575 563 35 43 102 120 142 164 19 21 55 61 80 90 25 29 57 65 73 82 15 16 27 32 27 37 0 9 81 117 110 146 11 12 20 23 20 27 0 3 19 34 43 68 23 34 47 69 52 78 46 76 95 163 110 194 9 20 23 42 31 49 8 6 14 17 14 25 0 7 11 34 25 60 14 26 25 53 25 60 0 7 11 25 25 40 14 15 25 37 25 50 0 13 11 44 25 70 14 26 25 54 25 63 0 9 8 32 19 51 10 19 21 53 25 75 4 22 15 48 24 58 9 10 21 48 28 85 7 37 20 87 28 112 8 25 27 108 41 185 22 123 25 166 25 360 -1 121 -5 238 -10 260 -29 124 -43 174 -60 206 -10 19 -22 52 -25 72 -4 21 -16 42 -26 48 -11 5 -19 16 -19 24 0 7 -11 27 -25 43 -14 17 -25 33 -25 37 0 8 -50 70 -75 95 -9 8 -28 27 -43 43 -14 15 -32 27 -39 27 -7 0 -34 20 -60 45 -26 24 -60 47 -75 50 -15 4 -32 13 -39 21 -6 8 -16 14 -22 14 -11 0 -131 51 -177 75 -14 8 -62 18 -108 25 -45 6 -97 17 -117 25 -53 23 -291 20 -413 -4 -53 -11 -126 -22 -161 -26 -35 -3 -80 -13 -100 -20 -20 -8 -62 -19 -93 -25 -32 -6 -60 -15 -63 -20 -3 -4 -29 -14 -57 -21 -49 -11 -98 -31 -158 -64 -14 -7 -66 -34 -117 -59 -51 -26 -95 -51 -98 -56 -3 -6 -15 -10 -26 -10 -11 0 -31 -11 -45 -25 -14 -14 -29 -25 -34 -25 -5 0 -37 -22 -71 -50 -34 -27 -68 -50 -75 -50 -7 0 -21 -11 -32 -25 -11 -14 -24 -25 -29 -25 -10 0 -38 -22 -94 -72 -16 -16 -34 -28 -40 -28 -6 0 -54 -37 -107 -83 -53 -45 -113 -94 -132 -109 -95 -71 -273 -236 -291 -270 -5 -10 -16 -18 -24 -18 -8 0 -20 -10 -26 -22 -7 -13 -31 -41 -53 -64 -38 -38 -179 -189 -292 -314 -28 -30 -71 -77 -97 -105 -26 -27 -47 -53 -47 -57 0 -14 -48 -8 -53 6 -10 25 3 106 22 144 10 20 21 68 25 106 4 38 15 87 25 110 10 23 21 64 25 92 3 27 15 76 26 107 11 31 20 72 20 90 0 19 7 48 16 66 9 17 22 66 29 109 8 43 19 91 25 107 6 16 15 79 21 140 5 60 18 144 28 185 11 41 24 140 30 220 7 80 15 185 20 234 5 48 5 118 1 155 -5 36 -13 111 -20 165 -6 55 -18 112 -25 126 -8 15 -19 49 -26 76 -7 27 -20 60 -31 73 -10 13 -18 31 -18 41 0 10 -8 28 -17 41 -10 13 -22 31 -28 40 -41 66 -68 101 -80 105 -8 3 -17 15 -21 26 -3 11 -20 26 -38 33 -18 8 -38 21 -46 29 -7 9 -18 16 -25 16 -7 0 -18 7 -25 15 -17 20 -119 69 -211 99 -69 24 -89 26 -245 26 -105 0 -176 -5 -188 -12z"/> <path d="M4465 4516 c-70 -24 -119 -53 -153 -90 -18 -20 -36 -36 -41 -36 -5 0 -14 -14 -20 -32 -6 -17 -17 -39 -25 -47 -16 -19 -43 -116 -51 -186 -8 -59 26 -206 56 -244 11 -13 19 -29 19 -36 0 -7 25 -35 57 -64 108 -99 254 -130 367 -76 29 14 61 34 70 44 10 11 28 22 41 25 14 4 27 18 34 36 5 17 17 33 25 36 9 3 21 25 28 48 6 22 19 52 27 66 23 36 23 260 0 286 -9 11 -19 34 -22 52 -11 56 -82 137 -152 173 -22 12 -47 28 -56 35 -23 21 -155 27 -204 10z"/> <path d="M7170 4521 c-19 -5 -48 -16 -65 -25 -16 -9 -35 -16 -41 -16 -6 0 -39 -25 -74 -55 -93 -80 -110 -128 -110 -306 0 -130 1 -139 30 -200 16 -35 46 -81 67 -102 54 -54 109 -97 122 -97 7 0 29 -9 51 -20 42 -21 173 -29 185 -11 3 5 22 15 43 22 129 42 250 251 240 416 -2 38 -11 83 -21 102 -9 19 -17 41 -17 50 -1 43 -122 177 -181 201 -19 7 -41 19 -49 26 -19 16 -133 26 -180 15z"/> <path d="M9960 4083 c-8 -3 -22 -11 -30 -18 -8 -7 -29 -16 -46 -19 -17 -4 -48 -24 -68 -45 -44 -45 -60 -101 -50 -178 5 -46 13 -60 49 -96 36 -36 55 -46 118 -62 74 -18 78 -18 159 0 82 18 149 49 193 89 13 12 30 26 38 33 22 17 40 139 30 198 -7 43 -12 51 -38 59 -17 5 -51 17 -77 27 -36 15 -71 19 -155 18 -59 0 -115 -3 -123 -6z"/> <path d="M3432 2634 c-22 -15 -22 -19 -22 -228 0 -201 1 -214 20 -231 19 -17 41 -18 268 -16 261 2 310 9 351 48 13 13 27 23 32 23 4 0 11 10 14 23 4 12 16 42 27 65 55 117 -33 299 -156 323 -23 5 -147 8 -276 9 -198 0 -239 -3 -258 -16z"/> <path d="M3432 1914 c-22 -15 -22 -19 -22 -230 0 -173 3 -221 15 -244 l16 -30 270 0 270 0 63 30 c47 22 75 43 106 82 l42 53 -4 112 c-3 104 -5 114 -25 128 -13 9 -23 22 -23 28 0 21 -66 66 -112 77 -24 5 -162 10 -308 10 -224 0 -269 -2 -288 -16z"/> <path d="M5962 1776 c-29 -7 -60 -20 -70 -28 -9 -9 -27 -19 -40 -23 -16 -4 -34 -30 -59 -80 l-36 -73 36 -76 c36 -76 37 -77 109 -112 69 -34 77 -35 146 -29 43 3 89 14 110 26 20 10 44 19 53 19 22 0 116 78 140 116 27 45 28 203 0 228 -42 38 -281 58 -389 32z"/> <path d="M7422 2210 c-70 -15 -202 -140 -219 -208 -3 -15 -14 -45 -24 -67 -30 -65 -26 -201 7 -284 15 -36 36 -79 48 -95 32 -43 99 -105 121 -112 11 -4 31 -16 46 -26 23 -18 40 -19 150 -16 l124 3 73 48 c39 27 72 53 72 58 0 6 11 20 24 32 33 31 46 105 46 261 0 137 -12 206 -43 242 -57 67 -92 101 -117 114 -15 8 -42 23 -60 33 -37 22 -181 31 -248 17z"/> <path d="M8827 1776 c-33 -7 -62 -17 -65 -23 -4 -6 -21 -17 -38 -26 -62 -32 -92 -117 -73 -205 15 -69 42 -101 117 -139 47 -24 68 -28 131 -27 53 0 87 6 110 18 19 10 51 23 72 30 21 6 61 34 92 63 l54 52 7 85 c8 111 -6 152 -56 160 -18 3 -63 10 -99 16 -85 13 -179 12 -252 -4z"/> <path d="M1600 1724 c-31 -13 -90 -87 -101 -127 -18 -66 -4 -163 29 -202 28 -33 117 -85 145 -85 17 0 99 41 124 62 35 29 50 138 32 228 -10 50 -17 63 -51 90 -33 27 -50 33 -101 36 -34 2 -69 1 -77 -2z"/> <path d="M10942 1908 c-19 -19 -17 -292 3 -308 10 -8 51 -11 134 -8 117 3 120 4 151 33 40 38 70 95 70 134 0 44 -33 109 -71 136 -31 23 -41 25 -154 25 -81 0 -125 -4 -133 -12z"/> <path d="M2290 1723 c-27 -11 -79 -75 -86 -106 -11 -51 9 -57 178 -57 135 0 148 2 158 19 16 31 12 60 -11 79 -11 9 -25 26 -29 38 -5 13 -21 24 -40 28 -39 7 -149 7 -170 -1z"/> </g> </svg> 